<?xml version="1.0" standalone="no"?>
<!DOCTYPE svg PUBLIC "-//W3C//DTD SVG 20010904//EN"
 "http://www.w3.org/TR/2001/REC-SVG-20010904/DTD/svg10.dtd">
<svg version="1.0" xmlns="http://www.w3.org/2000/svg"
 width="254.000000pt" height="254.000000pt" viewBox="0 0 254.000000 254.000000"
 preserveAspectRatio="xMidYMid meet">
<metadata>
Created by potrace 1.11, written by Peter Selinger 2001-2013
</metadata>
<g transform="translate(0.000000,254.000000) scale(0.100000,-0.100000)"
fill="#000000" stroke="none">
<path d="M1196 2483 c-1 -1 -29 -5 -62 -8 -34 -3 -72 -8 -85 -11 -13 -3 -33
-7 -44 -8 -11 -2 -20 -4 -20 -5 0 -2 -7 -4 -15 -6 -86 -21 -92 -23 -155 -50
-89 -38 -145 -68 -145 -76 0 -6 -4 -8 -9 -4 -5 3 -16 -2 -24 -10 -9 -8 -18
-15 -21 -15 -11 0 -112 -76 -149 -112 -21 -21 -43 -38 -48 -38 -5 0 -9 -4 -9
-8 0 -5 -13 -21 -28 -38 -78 -83 -177 -229 -221 -329 -25 -56 -69 -190 -75
-225 -3 -19 -8 -46 -11 -60 -23 -111 -22 -395 3 -435 3 -5 7 -25 9 -45 2 -19
10 -52 18 -73 9 -21 13 -43 10 -48 -4 -5 -1 -9 4 -9 6 0 11 -4 11 -9 0 -5 8
-26 17 -47 9 -22 17 -41 18 -44 6 -27 105 -192 150 -248 58 -74 251 -252 272
-252 6 0 18 -9 27 -19 10 -11 32 -25 49 -32 18 -7 34 -16 37 -19 3 -4 44 -23
92 -44 133 -57 289 -95 379 -92 21 1 39 -1 39 -4 0 -3 285 -5 634 -5 349 0
632 3 629 8 -2 4 0 7 4 7 7 0 10 167 4 215 -1 6 -86 10 -236 9 -129 0 -235 2
-235 4 0 3 38 40 83 83 46 43 104 104 128 136 24 32 47 60 50 63 3 3 9 12 13
20 4 8 12 24 19 35 49 83 69 119 72 129 1 6 10 28 19 50 21 47 56 156 50 156
-3 0 0 8 5 18 12 23 22 82 26 159 2 35 5 66 7 70 11 24 -6 232 -24 298 -6 22
-11 48 -10 58 0 9 -4 17 -10 17 -6 0 -9 3 -5 6 5 5 -10 58 -30 104 -3 8 -7 20
-9 27 -5 26 -69 143 -119 218 -71 106 -153 196 -245 267 -41 32 -80 62 -86 67
-5 4 -30 19 -55 32 -24 13 -46 26 -49 29 -11 11 -164 77 -200 85 -3 1 -25 7
-50 14 -63 18 -82 23 -105 26 -11 1 -40 5 -65 9 -42 7 -219 14 -224 9z m181
-264 c83 -40 135 -124 135 -219 0 -136 -106 -243 -242 -243 -65 0 -116 20
-164 64 -145 131 -79 377 111 417 52 11 110 4 160 -19z m-741 -724 c78 -32
141 -120 148 -207 3 -51 -16 -122 -40 -149 -9 -10 -14 -19 -11 -19 9 0 -23
-31 -49 -48 -69 -46 -166 -58 -235 -29 -52 21 -107 74 -129 122 -93 205 108
414 316 330z m722 4 c17 -6 32 -15 32 -20 0 -6 4 -8 9 -5 13 8 80 -69 98 -113
9 -20 15 -63 15 -98 -1 -131 -108 -235 -240 -236 -138 0 -245 106 -245 243 0
173 161 284 331 229z m745 -8 c20 -8 37 -19 37 -23 0 -5 6 -8 13 -8 14 0 71
-83 83 -120 13 -43 5 -128 -16 -173 -41 -86 -125 -140 -219 -139 -165 1 -280
153 -235 309 41 143 197 215 337 154z m-747 -721 c19 -7 34 -16 34 -21 0 -6 4
-8 9 -5 13 8 78 -67 97 -111 31 -75 14 -191 -37 -246 -10 -11 -19 -25 -19 -29
0 -5 -4 -6 -10 -3 -5 3 -10 2 -10 -4 0 -18 -88 -52 -138 -53 -73 -2 -126 18
-175 65 -57 54 -80 106 -79 177 1 173 161 285 328 230z"/>
</g>
</svg>
